<svg xmlns="http://www.w3.org/2000/svg" viewBox="0 0 64 64" width="64px" height="64px"><path fill="#8d6c9f" d="M63,56H1c-0.553,0-1-0.447-1-1s0.447-1,1-1h62c0.553,0,1,0.447,1,1S63.553,56,63,56z"/><path fill="#faefde" d="M58,27H43V10c0-0.552-0.448-1-1-1H22c-0.552,0-1,0.448-1,1v11H6c-0.552,0-1,0.448-1,1v33h18h18h18 V28C59,27.448,58.552,27,58,27z"/><path fill="#efd8be" d="M58,50H6c-0.552,0-1,0.448-1,1v4h18h18h18v-4C59,50.448,58.552,50,58,50z"/><path fill="#85cbf8" d="M22,21H6v0c0,1.657,1.343,3,3,3h10C20.657,24,22,22.657,22,21L22,21z"/><path fill="#f283a5" d="M42,9H22v0c0,1.657,1.343,3,3,3h14C40.657,12,42,10.657,42,9L42,9z"/><path fill="#72caaf" d="M58,27H42v0c0,1.657,1.343,3,3,3h10C56.657,30,58,28.657,58,27L58,27z"/><path fill="#8d6c9f" d="M59,56H5c-0.553,0-1-0.447-1-1V22c0-1.103,0.897-2,2-2h14V10c0-1.103,0.897-2,2-2h20 c1.103,0,2,0.897,2,2v16h14c1.103,0,2,0.897,2,2v27C60,55.553,59.553,56,59,56z M6,54h52V28H43c-0.553,0-1-0.447-1-1V10H22v11 c0,0.553-0.447,1-1,1H6V54z"/><path fill="#8d6c9f" d="M12 52c-.553 0-1-.447-1-1v-2c0-.553.447-1 1-1s1 .447 1 1v2C13 51.553 12.553 52 12 52zM17 52c-.553 0-1-.447-1-1v-2c0-.553.447-1 1-1s1 .447 1 1v2C18 51.553 17.553 52 17 52zM22 52c-.553 0-1-.447-1-1v-2c0-.553.447-1 1-1s1 .447 1 1v2C23 51.553 22.553 52 22 52zM27 52c-.553 0-1-.447-1-1v-2c0-.553.447-1 1-1s1 .447 1 1v2C28 51.553 27.553 52 27 52zM32 52c-.553 0-1-.447-1-1v-2c0-.553.447-1 1-1s1 .447 1 1v2C33 51.553 32.553 52 32 52zM37 52c-.553 0-1-.447-1-1v-2c0-.553.447-1 1-1s1 .447 1 1v2C38 51.553 37.553 52 37 52zM42 52c-.553 0-1-.447-1-1v-2c0-.553.447-1 1-1s1 .447 1 1v2C43 51.553 42.553 52 42 52zM47 52c-.553 0-1-.447-1-1v-2c0-.553.447-1 1-1s1 .447 1 1v2C48 51.553 47.553 52 47 52zM52 52c-.553 0-1-.447-1-1v-2c0-.553.447-1 1-1s1 .447 1 1v2C53 51.553 52.553 52 52 52zM31 17.56V21c0 .552.448 1 1 1s1-.448 1-1v-5c.001-.552-.446-1.001-.998-1.002-.153 0-.304.035-.442.102l-2 1c-.502.231-.722.824-.491 1.326.231.502.824.722 1.326.491C30.413 17.909 31 17.56 31 17.56zM50.16 33h-1.69c-.552 0-1 .448-1 1s.448 1 1 1H50v.57h-.69c-.552 0-1 .448-1 1s.448 1 1 1H50V38h-1.53c-.552 0-1 .448-1 1s.448 1 1 1h1.69c1.01-.005 1.829-.82 1.84-1.83v-3.38C51.968 33.796 51.155 33.005 50.16 33zM13 27.01c-.552 0-1 .448-1 1s.448 1 1 1h1.52v.5h-.67c-1.008.005-1.825.822-1.83 1.83v.83c.005 1.008.822 1.825 1.83 1.83h1.67c.552 0 1-.448 1-1s-.448-1-1-1h-1.5v-.5h.67c1.016-.005 1.836-.834 1.83-1.85 0-.007 0-.014 0-.02V28.8c-.027-1.001-.849-1.796-1.85-1.79H13z"/></svg>