<svg xmlns="http://www.w3.org/2000/svg" viewBox="0 0 64 64" width="64px" height="64px"><path fill="#faefde" d="M31.994,4.652c-15.464,0-28,12.536-28,28s12.536,28,28,28s28-12.536,28-28S47.458,4.652,31.994,4.652	z"/><path fill="#ed7899" d="M3.994,32.652c0-15.464,12.536-28,28-28s28,12.536,28,28C59.994,32.652,3.994,33.652,3.994,32.652z"/><ellipse cx="32" cy="32" fill="#acb7d0" rx="28" ry="10"/><path fill="#fff8ee" d="M32,13c-4.971,0-9,4.029-9,9s4.029,9,9,9s9-4.029,9-9S36.971,13,32,13z"/><path fill="#c2cde7" d="M4,32c0,4.472,7.71,8.258,19,9.537c1.599,0.181,1.269,6.387,3,6.463c1.142,0.05,4.809,2,6,2	c1.531,0,4.534-1.918,6-2c1.723-0.096,1.395-6.37,3-6.569C52.069,40.058,60,36.354,60,32H4z"/><path fill="#f9e3ae" d="M31.994,18c-2.209,0-4,1.791-4,4s1.791,4,4,4s4-1.791,4-4S34.203,18,31.994,18z"/><path fill="#fff7f0" d="M33.229,58.272c0.41-1.706-0.915-3.343-2.67-3.392c-0.197-0.006-0.357-0.013-0.462-0.021 c-7.586-0.624-14.14-4.946-17.852-11.153c-0.83-1.389-2.639-1.991-4.041-1.184c-1.506,0.867-1.995,2.801-1.102,4.293 c4.697,7.844,12.996,13.284,22.611,14.034c1.614,0.126,3.109-0.938,3.5-2.509C33.218,58.317,33.223,58.295,33.229,58.272z"/><path fill="#8d6c9f" d="M60.98,31.37C60.66,15.64,47.81,3,32,3S3.34,15.64,3.02,31.37C3.01,31.52,3,31.68,3,31.83V32 c0,16.02,12.98,29,29,29s29-12.98,29-29v-0.17C61,31.68,60.99,31.52,60.98,31.37z M32.98,58.98C32.66,58.99,32.33,59,32,59 c-10.9,0.01-20.33-6.45-24.59-15.81c-1-2.18-1.72-4.52-2.1-6.98C5.14,35.16,5.04,34.09,5,33v-2c0-0.06,0-0.11,0.01-0.17 c0.05-1.19,0.18-2.35,0.38-3.49C7.6,14.6,18.72,4.99,32,5c13.28-0.01,24.4,9.6,26.61,22.34c0.2,1.14,0.33,2.3,0.38,3.49 C59,30.89,59,30.94,59,31v2c-0.04,1.08-0.14,2.15-0.31,3.2C56.71,48.85,45.99,58.53,32.98,58.98z"/><path fill="#8d6c9f" d="M58.997,32.826h-2c-0.553,0-1-0.448-1-1s0.447-1,1-1h2c0.553,0,1,0.448,1,1 S59.55,32.826,58.997,32.826z"/><path fill="#8d6c9f" d="M52.997,32.826h-6c-0.553,0-1-0.448-1-1s0.447-1,1-1h6c0.553,0,1,0.448,1,1 S53.55,32.826,52.997,32.826z"/><path fill="#8d6c9f" d="M42.997,32.826h-2c-0.553,0-1-0.448-1-1s0.447-1,1-1h2c0.553,0,1,0.448,1,1 S43.55,32.826,42.997,32.826z"/><path fill="#8d6c9f" d="M22.997,32.826h-4c-0.553,0-1-0.448-1-1s0.447-1,1-1h4c0.553,0,1,0.448,1,1 S23.55,32.826,22.997,32.826z"/><path fill="#8d6c9f" d="M14.997,32.826h-10c-0.553,0-1-0.448-1-1s0.447-1,1-1h10c0.553,0,1,0.448,1,1 S15.55,32.826,14.997,32.826z"/><path fill="#8d6c9f" d="M41.98,21.47c-0.19-5.36-4.6-9.64-9.99-9.64s-9.8,4.28-9.99,9.64c-0.01,0.12-0.01,0.24-0.01,0.36 c0,0.56,0.05,1.11,0.14,1.64c0.78,4.73,4.91,8.36,9.86,8.36s9.08-3.63,9.86-8.36c0.09-0.53,0.14-1.08,0.14-1.64 C41.99,21.71,41.99,21.59,41.98,21.47z M31.99,29.83c-4.41,0-8-3.59-8-8c0-4.42,3.59-8,8-8c4.41,0,8,3.58,8,8 C39.99,26.24,36.4,29.83,31.99,29.83z"/><path fill="#8d6c9f" d="M60.98,31.37c-0.15-1.43-0.97-2.8-2.37-4.03c-3.07-2.72-8.94-4.84-16.63-5.87 c-0.28-0.04-0.57-0.07-0.86-0.11l-0.24,1.99c0.32,0.04,0.65,0.08,0.97,0.12c9.05,1.24,15.77,4.19,16.96,7.36 c0.13,0.33,0.19,0.66,0.19,1c0,0.34-0.06,0.68-0.17,1c-1.248,3.59-9.068,6.309-17.961,7.432c-0.483,0.061-0.857,0.456-0.872,0.943 c-0.03,0.976-0.277,1.951-0.739,2.919c-1.418,2.971-4.314,5.008-7.603,4.868C27.73,48.826,24.54,45.836,24.062,42 c-0.018-0.148-0.031-0.453-0.037-0.762c-0.01-0.499-0.384-0.911-0.879-0.974C14.246,39.141,6.419,36.421,5.17,32.83 C5.06,32.51,5,32.17,5,31.83c0-0.34,0.06-0.67,0.19-1c1.19-3.17,7.9-6.11,16.94-7.36c0.33-0.04,0.66-0.08,0.99-0.12l-0.24-1.99 c-0.001-0.001-0.001-0.001-0.002-0.002C14.755,22.341,8.576,24.517,5.39,27.34c-1.4,1.23-2.22,2.6-2.37,4.03 C3.01,31.52,3,31.68,3,31.83v0.06c0.02,1.54,0.84,3,2.31,4.32c3.12,2.79,9.18,4.96,16.79,5.98c0.66,4.87,4.84,8.64,9.89,8.64 s9.23-3.77,9.9-8.64c7.61-1.02,13.68-3.19,16.8-5.99c1.47-1.31,2.29-2.77,2.31-4.31v-0.06C61,31.68,60.99,31.52,60.98,31.37z"/><path fill="#8d6c9f" d="M31.99,16.83c-2.76,0-5,2.24-5,5c0,2.76,2.24,5,5,5c2.77,0,5-2.24,5-5 C36.99,19.07,34.76,16.83,31.99,16.83z M31.99,24.83c-1.65,0-3-1.34-3-3c0-1.66,1.35-3,3-3c1.66,0,3,1.34,3,3 C34.99,23.49,33.65,24.83,31.99,24.83z"/><g><path fill="#8d6c9f" d="M29.372,56.849c-0.036,0-0.073-0.002-0.11-0.006c-0.549-0.06-0.944-0.554-0.885-1.103 l0.218-1.988c0.061-0.549,0.543-0.944,1.104-0.885c0.549,0.06,0.945,0.554,0.885,1.103l-0.218,1.988 C30.309,56.47,29.876,56.849,29.372,56.849z"/><path fill="#8d6c9f" d="M24.241,55.689c-0.107,0-0.217-0.018-0.324-0.055c-0.522-0.179-0.801-0.748-0.622-1.27 l0.648-1.892c0.18-0.522,0.748-0.803,1.271-0.622c0.522,0.179,0.801,0.748,0.622,1.27l-0.648,1.892 C25.045,55.428,24.657,55.689,24.241,55.689z"/><path fill="#8d6c9f" d="M19.487,53.443c-0.179,0-0.359-0.047-0.522-0.148c-0.471-0.289-0.618-0.904-0.329-1.375 l1.046-1.704c0.29-0.471,0.906-0.619,1.376-0.329c0.471,0.289,0.618,0.904,0.329,1.375l-1.046,1.704 C20.151,53.273,19.823,53.443,19.487,53.443z"/><path fill="#8d6c9f" d="M15.329,50.229c-0.251,0-0.501-0.093-0.695-0.281c-0.397-0.384-0.407-1.017-0.023-1.414 l1.391-1.437c0.385-0.397,1.018-0.407,1.414-0.023c0.397,0.384,0.407,1.017,0.023,1.414l-1.391,1.437 C15.852,50.127,15.591,50.229,15.329,50.229z"/><path fill="#8d6c9f" d="M11.97,46.187c-0.325,0-0.644-0.158-0.836-0.449c-0.304-0.461-0.177-1.082,0.284-1.386 l1.669-1.102c0.459-0.304,1.081-0.177,1.386,0.283c0.304,0.461,0.177,1.082-0.284,1.386l-1.669,1.102 C12.351,46.133,12.159,46.187,11.97,46.187z"/></g></svg>