<svg xmlns="http://www.w3.org/2000/svg" viewBox="0 0 64 64" width="64px" height="64px"><rect width="54" height="50" x="5" y="7" fill="#cda1a7" rx="2" ry="2"/><path fill="#c4939c" d="M9,52H55a4,4,0,0,1,4,4v0a1,1,0,0,1-1,1H6a1,1,0,0,1-1-1v0a4,4,0,0,1,4-4Z"/><path fill="#8d6c9f" d="M57,6H7A3,3,0,0,0,4,9V55a3,3,0,0,0,3,3H57a3,3,0,0,0,3-3V9A3,3,0,0,0,57,6Zm1,49a1,1,0,0,1-1,1H7a1,1,0,0,1-1-1V9A1,1,0,0,1,7,8H57a1,1,0,0,1,1,1Z"/><path fill="#8d6c9f" d="M14 50a1 1 0 0 0-1 1v2a1 1 0 0 0 2 0V51A1 1 0 0 0 14 50zM9 50a1 1 0 0 0-1 1v2a1 1 0 0 0 2 0V51A1 1 0 0 0 9 50zM29 50a1 1 0 0 0-1 1v2a1 1 0 0 0 2 0V51A1 1 0 0 0 29 50zM34 50a1 1 0 0 0-1 1v2a1 1 0 0 0 2 0V51A1 1 0 0 0 34 50zM39 50a1 1 0 0 0-1 1v2a1 1 0 0 0 2 0V51A1 1 0 0 0 39 50zM44 50a1 1 0 0 0-1 1v2a1 1 0 0 0 2 0V51A1 1 0 0 0 44 50zM49 50a1 1 0 0 0-1 1v2a1 1 0 0 0 2 0V51A1 1 0 0 0 49 50zM54 50a1 1 0 0 0-1 1v2a1 1 0 0 0 2 0V51A1 1 0 0 0 54 50zM19 50a1 1 0 0 0-1 1v2a1 1 0 0 0 2 0V51A1 1 0 0 0 19 50zM24 50a1 1 0 0 0-1 1v2a1 1 0 0 0 2 0V51A1 1 0 0 0 24 50z"/><path fill="#faefde" d="M41 22H17.41l5.29-5.29a1 1 0 0 0-1.41-1.41l-7 7a1 1 0 0 0 0 1.42l7 7a1 1 0 0 0 1.41-1.41L17.41 24H41a7 7 0 0 1 0 14H33a1 1 0 0 0 0 2h8a9 9 0 0 0 0-18zM29 38H25a1 1 0 0 0 0 2h4a1 1 0 0 0 0-2z"/></svg>