<svg xmlns="http://www.w3.org/2000/svg" viewBox="0 0 64 64" width="64px" height="64px"><path fill="#72caaf" d="M12 32.12L41 61.12 45.24 56.88 23.36 35 20.12 32 23.36 29 45.24 7.12 41 2.88 12 31.88 12.12 32 12 32.12z"/><path fill="#97e0bb" d="M40.5,7.62,16.74,31.38a3,3,0,0,1-4.24,0h0l28-28h0A3,3,0,0,1,40.5,7.62Z"/><path fill="#8d6c9f" d="M21.41,32,45.71,7.71a1,1,0,0,0,0-1.41l-4-4a1,1,0,0,0-1.41,0l-29,29a1,1,0,0,0,0,1.41l29,29a1,1,0,0,0,1.41,0l4-4a1,1,0,0,0,0-1.41ZM41,59.59,13.41,32,41,4.41,43.59,7,19.29,31.29a1,1,0,0,0,0,1.41L43.59,57Z"/><path fill="#8d6c9f" d="M30.91 37.32a1 1 0 0 0 .71-.29L33 35.62a1 1 0 0 0-1.41-1.41L30.2 35.62a1 1 0 0 0 .71 1.71zM35.15 37.74l-1.41 1.41a1 1 0 1 0 1.41 1.41l1.41-1.41a1 1 0 0 0-1.41-1.41zM38.69 41.27l-1.41 1.41a1 1 0 1 0 1.41 1.41l1.41-1.41a1 1 0 0 0-1.41-1.41zM42.22 44.81l-1.41 1.41a1 1 0 1 0 1.41 1.41l1.41-1.41a1 1 0 0 0-1.41-1.41zM45.76 48.34l-1.41 1.41a1 1 0 1 0 1.41 1.41l1.41-1.41a1 1 0 0 0-1.41-1.41zM49.29 51.88l-1.41 1.41a1 1 0 1 0 1.41 1.41l1.41-1.41a1 1 0 0 0-1.41-1.41zM29.29 30.92h-2a1 1 0 1 0 0 2h2a1 1 0 0 0 0-2zM33 28.38L31.62 27a1 1 0 0 0-1.41 1.41l1.41 1.41A1 1 0 0 0 33 28.38zM36.56 24.85l-1.41-1.41a1 1 0 0 0-1.41 1.41l1.41 1.41a1 1 0 0 0 1.41-1.41zM40.1 21.31L38.69 19.9a1 1 0 0 0-1.41 1.41l1.41 1.41a1 1 0 0 0 1.41-1.41zM43.64 17.78l-1.41-1.41a1 1 0 0 0-1.41 1.41l1.41 1.41a1 1 0 0 0 1.41-1.41zM45.76 12.83a1 1 0 0 0-1.41 1.41l1.41 1.41a1 1 0 0 0 1.41-1.41zM49.29 12.12a1 1 0 0 0 1.41-1.41L49.29 9.29a1 1 0 0 0-1.41 1.41z"/></svg>