<svg fill="#000000" xmlns="http://www.w3.org/2000/svg" viewBox="0 0 80 80" width="80px" height="80px"><path d="M 39.5 8 C 21.562579 8 7 22.562592 7 40.5 C 7 40.559585 7.0035853 40.618224 7.0039062 40.677734 C 7.0034604 40.709852 7 40.741237 7 40.773438 C 7 40.882536 7.0105307 40.989505 7.015625 41.097656 C 7.3359747 58.75874 21.762963 73 39.5 73 C 57.237037 73 71.664025 58.75874 71.984375 41.097656 C 71.989469 40.989505 72 40.882536 72 40.773438 C 72 40.741241 71.99654 40.709849 71.996094 40.677734 C 71.996415 40.618224 72 40.559585 72 40.5 C 72 22.562592 57.437421 8 39.5 8 z M 39.5 10 C 40.003179 10 40.502825 10.013072 41 10.037109 A 1 1 0 0 0 42 11 A 1 1 0 0 0 42.978516 10.203125 C 45.63671 10.504439 48.188495 11.147213 50.59375 12.085938 A 1 1 0 0 0 51 14 A 1 1 0 0 0 51.935547 12.646484 C 61.033174 16.710371 67.762584 25.093585 69.53125 35.199219 C 68.37915 33.958619 66.888773 32.823487 65.113281 31.828125 C 64.749067 31.623942 64.358484 31.430745 63.970703 31.236328 A 1 1 0 0 0 63 30 A 1 1 0 0 0 62.191406 30.414062 C 60.051789 29.501151 57.634466 28.723498 54.994141 28.101562 A 1 1 0 0 0 54 27 A 1 1 0 0 0 53.054688 27.677734 C 51.705997 27.409492 50.309617 27.177792 48.869141 26.990234 C 48.167463 22.631899 44.492779 19.260774 39.998047 19.025391 A 1 1 0 0 0 39 18 A 1 1 0 0 0 38.007812 19.128906 C 33.973824 19.770637 30.782808 22.957004 30.132812 26.988281 C 28.34785 27.220785 26.633558 27.521418 24.992188 27.876953 A 1 1 0 0 0 24 27 A 1 1 0 0 0 23.054688 28.330078 C 20.439867 28.997109 18.063741 29.8226 15.976562 30.78125 A 1 1 0 0 0 15 30 A 1 1 0 0 0 14.238281 31.646484 C 14.124015 31.708366 13.998726 31.765332 13.886719 31.828125 C 12.111436 32.82337 10.6208 33.956893 9.46875 35.197266 C 9.8611919 32.955804 10.491007 30.797847 11.34375 28.753906 A 1 1 0 0 0 12 29 A 1 1 0 0 0 12.140625 27.009766 C 15.108446 20.9966 19.9966 16.108448 26.009766 13.140625 A 1 1 0 0 0 27 14 A 1 1 0 0 0 27.753906 12.34375 C 30.057301 11.382761 32.503073 10.698 35.052734 10.326172 A 1 1 0 0 0 36 11 A 1 1 0 0 0 36.994141 10.111328 C 37.821259 10.044141 38.655438 10 39.5 10 z M 33 12 A 1 1 0 0 0 33 14 A 1 1 0 0 0 33 12 z M 39 12 A 1 1 0 0 0 39 14 A 1 1 0 0 0 39 12 z M 45 12 A 1 1 0 0 0 45 14 A 1 1 0 0 0 45 12 z M 24 15 A 1 1 0 0 0 24 17 A 1 1 0 0 0 24 15 z M 30 15 A 1 1 0 0 0 30 17 A 1 1 0 0 0 30 15 z M 36 15 A 1 1 0 0 0 36 17 A 1 1 0 0 0 36 15 z M 42 15 A 1 1 0 0 0 42 17 A 1 1 0 0 0 42 15 z M 48 15 A 1 1 0 0 0 48 17 A 1 1 0 0 0 48 15 z M 54 15 A 1 1 0 0 0 54 17 A 1 1 0 0 0 54 15 z M 21 18 A 1 1 0 0 0 21 20 A 1 1 0 0 0 21 18 z M 27 18 A 1 1 0 0 0 27 20 A 1 1 0 0 0 27 18 z M 33 18 A 1 1 0 0 0 33 20 A 1 1 0 0 0 33 18 z M 45 18 A 1 1 0 0 0 45 20 A 1 1 0 0 0 45 18 z M 51 18 A 1 1 0 0 0 51 20 A 1 1 0 0 0 51 18 z M 57 18 A 1 1 0 0 0 57 20 A 1 1 0 0 0 57 18 z M 18 21 A 1 1 0 0 0 18 23 A 1 1 0 0 0 18 21 z M 24 21 A 1 1 0 0 0 24 23 A 1 1 0 0 0 24 21 z M 30 21 A 1 1 0 0 0 30 23 A 1 1 0 0 0 30 21 z M 39.5 21 C 43.653984 21 47 24.346019 47 28.5 C 47 32.653981 43.653984 36 39.5 36 C 35.346016 36 32 32.653981 32 28.5 C 32 24.346019 35.346016 21 39.5 21 z M 48 21 A 1 1 0 0 0 48 23 A 1 1 0 0 0 48 21 z M 54 21 A 1 1 0 0 0 54 23 A 1 1 0 0 0 54 21 z M 60 21 A 1 1 0 0 0 60 23 A 1 1 0 0 0 60 21 z M 15 24 A 1 1 0 0 0 15 26 A 1 1 0 0 0 15 24 z M 21 24 A 1 1 0 0 0 21 26 A 1 1 0 0 0 21 24 z M 27 24 A 1 1 0 0 0 27 26 A 1 1 0 0 0 27 24 z M 39.5 24 C 38.083334 24 36.893559 24.567256 36.126953 25.429688 C 35.360347 26.292119 35 27.402778 35 28.5 C 35 29.597222 35.360347 30.707882 36.126953 31.570312 C 36.893559 32.432744 38.083334 33 39.5 33 C 40.916666 33 42.106441 32.432744 42.873047 31.570312 C 43.639653 30.707881 44 29.597222 44 28.5 C 44 27.402778 43.639653 26.292118 42.873047 25.429688 C 42.106441 24.567256 40.916666 24 39.5 24 z M 51 24 A 1 1 0 0 0 51 26 A 1 1 0 0 0 51 24 z M 57 24 A 1 1 0 0 0 57 26 A 1 1 0 0 0 57 24 z M 63 24 A 1 1 0 0 0 63 26 A 1 1 0 0 0 63 24 z M 39.5 26 C 40.416666 26 40.976893 26.307744 41.376953 26.757812 C 41.777013 27.207881 42 27.847222 42 28.5 C 42 29.152778 41.777013 29.792118 41.376953 30.242188 C 40.976893 30.692256 40.416666 31 39.5 31 C 38.583334 31 38.023107 30.692256 37.623047 30.242188 C 37.222987 29.792119 37 29.152778 37 28.5 C 37 27.847222 37.222987 27.207882 37.623047 26.757812 C 38.023107 26.307744 38.583334 26 39.5 26 z M 18 27 A 1 1 0 0 0 18 29 A 1 1 0 0 0 18 27 z M 60 27 A 1 1 0 0 0 60 29 A 1 1 0 0 0 60 27 z M 66 27 A 1 1 0 0 0 66 29 A 1 1 0 0 0 66 27 z M 30.027344 29.025391 C 30.30305 34.015619 34.442593 38 39.5 38 C 44.556749 38 48.695977 34.01666 48.972656 29.027344 C 55.118662 29.864159 60.41994 31.48969 64.134766 33.572266 C 67.947739 35.709865 69.965955 38.22745 69.994141 40.720703 C 69.993815 40.766477 69.992714 40.811696 69.992188 40.857422 C 69.991333 40.904995 69.978869 40.952413 69.976562 41 A 1 1 0 0 0 69.513672 42.873047 C 69.457475 42.998679 69.390378 43.122914 69.324219 43.248047 C 68.965544 43.905515 68.47 44.559285 67.816406 45.207031 C 66.349397 46.660915 64.145373 48.036726 61.376953 49.199219 C 55.840113 51.524204 48.070619 53 39.5 53 C 30.929381 53 23.159887 51.524204 17.623047 49.199219 C 14.854627 48.036726 12.650603 46.660915 11.183594 45.207031 C 10.533027 44.562285 10.038047 43.912193 9.6796875 43.257812 C 9.607896 43.122552 9.5367095 42.987405 9.4765625 42.851562 A 1 1 0 0 0 10 43 A 1 1 0 0 0 10 41 A 1 1 0 0 0 9.0820312 41.603516 C 9.0385273 41.357428 9.0146049 41.111294 9.0097656 40.865234 C 9.009189 40.816231 9.0062051 40.767809 9.0058594 40.71875 C 9.03507 38.225564 11.053247 35.709312 14.865234 33.572266 C 18.58006 31.48969 23.881299 29.862746 30.027344 29.025391 z M 14 41 A 1 1 0 0 0 14 43 A 1 1 0 0 0 14 41 z M 18 41 A 1 1 0 0 0 18 43 A 1 1 0 0 0 18 41 z M 22 41 A 1 1 0 0 0 22 43 A 1 1 0 0 0 22 41 z M 26 41 A 1 1 0 0 0 26 43 A 1 1 0 0 0 26 41 z M 30 41 A 1 1 0 0 0 30 43 A 1 1 0 0 0 30 41 z M 34 41 A 1 1 0 0 0 34 43 A 1 1 0 0 0 34 41 z M 38 41 A 1 1 0 0 0 38 43 A 1 1 0 0 0 38 41 z M 42 41 A 1 1 0 0 0 42 43 A 1 1 0 0 0 42 41 z M 46 41 A 1 1 0 0 0 46 43 A 1 1 0 0 0 46 41 z M 50 41 A 1 1 0 0 0 50 43 A 1 1 0 0 0 50 41 z M 54 41 A 1 1 0 0 0 54 43 A 1 1 0 0 0 54 41 z M 58 41 A 1 1 0 0 0 58 43 A 1 1 0 0 0 58 41 z M 62 41 A 1 1 0 0 0 62 43 A 1 1 0 0 0 62 41 z M 66 41 A 1 1 0 0 0 66 43 A 1 1 0 0 0 66 41 z M 9.5898438 46.482422 C 10.725478 47.670236 12.174971 48.757116 13.886719 49.716797 C 17.896261 51.964721 23.41351 53.590067 29.712891 54.455078 C 30.327808 59.347168 34.4148 63.185547 39.5 63.185547 C 44.5852 63.185547 48.672192 59.347168 49.287109 54.455078 C 55.58646 53.589621 61.103745 51.964592 65.113281 49.716797 C 66.825024 48.757173 68.274522 47.670243 69.410156 46.482422 C 66.632741 60.469528 54.308346 71 39.5 71 C 24.691654 71 12.367259 60.469528 9.5898438 46.482422 z M 31.626953 54.572266 C 34.152534 54.842096 36.78 55 39.5 55 C 42.22 55 44.847466 54.842096 47.373047 54.572266 C 46.745017 58.325831 43.481384 61.185547 39.5 61.185547 C 35.518616 61.185547 32.254983 58.325831 31.626953 54.572266 z"/></svg>