<svg fill="#000000" xmlns="http://www.w3.org/2000/svg" viewBox="0 0 80 80" width="80px" height="80px"><path d="M 40 7 C 21.786448 7 7 21.786448 7 40 C 7 58.213552 21.786448 73 40 73 C 58.213552 73 73 58.213552 73 40 C 73 21.786448 58.213552 7 40 7 z M 40 9 A 1 1 0 0 0 39 10 A 1 1 0 0 0 40 11 A 1 1 0 0 0 41 10 A 1 1 0 0 0 40.070312 9.0019531 C 41.809476 9.0058301 43.513441 9.1589368 45.173828 9.4375 A 1 1 0 0 0 45 10 A 1 1 0 0 0 46 11 A 1 1 0 0 0 47 10 A 1 1 0 0 0 46.978516 9.796875 C 49.512491 10.379115 51.925814 11.269094 54.179688 12.429688 A 1 1 0 0 0 54 13 A 1 1 0 0 0 55 14 A 1 1 0 0 0 55.917969 13.392578 C 60.301553 16.018974 63.980794 19.696649 66.607422 24.080078 A 1 1 0 0 0 66 25 A 1 1 0 0 0 67 26 A 1 1 0 0 0 67.570312 25.822266 C 68.730517 28.075698 69.621019 30.488088 70.203125 33.021484 A 1 1 0 0 0 70 33 A 1 1 0 0 0 69 34 A 1 1 0 0 0 70 35 A 1 1 0 0 0 70.5625 34.826172 C 70.791128 36.188917 70.929673 37.58285 70.974609 39 L 50.949219 39 C 50.441457 33.403714 45.725847 29 40 29 C 34.274153 29 29.558543 33.403714 29.050781 39 L 9.0253906 39 C 9.0703275 37.58285 9.2088723 36.188917 9.4375 34.826172 A 1 1 0 0 0 10 35 A 1 1 0 0 0 11 34 A 1 1 0 0 0 10 33 A 1 1 0 0 0 9.796875 33.021484 C 10.379115 30.487509 11.269094 28.074186 12.429688 25.820312 A 1 1 0 0 0 13 26 A 1 1 0 0 0 14 25 A 1 1 0 0 0 13.392578 24.082031 C 16.018974 19.698447 19.696649 16.019206 24.080078 13.392578 A 1 1 0 0 0 25 14 A 1 1 0 0 0 26 13 A 1 1 0 0 0 25.822266 12.429688 C 28.075698 11.269483 30.488088 10.378981 33.021484 9.796875 A 1 1 0 0 0 33 10 A 1 1 0 0 0 34 11 A 1 1 0 0 0 35 10 A 1 1 0 0 0 34.826172 9.4375 C 36.509072 9.1551599 38.236329 9 40 9 z M 40 29 A 1 1 0 0 0 41 28 A 1 1 0 0 0 40 27 A 1 1 0 0 0 39 28 A 1 1 0 0 0 40 29 z M 31 12 A 1 1 0 0 0 30 13 A 1 1 0 0 0 31 14 A 1 1 0 0 0 32 13 A 1 1 0 0 0 31 12 z M 37 12 A 1 1 0 0 0 36 13 A 1 1 0 0 0 37 14 A 1 1 0 0 0 38 13 A 1 1 0 0 0 37 12 z M 43 12 A 1 1 0 0 0 42 13 A 1 1 0 0 0 43 14 A 1 1 0 0 0 44 13 A 1 1 0 0 0 43 12 z M 49 12 A 1 1 0 0 0 48 13 A 1 1 0 0 0 49 14 A 1 1 0 0 0 50 13 A 1 1 0 0 0 49 12 z M 22 15 A 1 1 0 0 0 21 16 A 1 1 0 0 0 22 17 A 1 1 0 0 0 23 16 A 1 1 0 0 0 22 15 z M 28 15 A 1 1 0 0 0 27 16 A 1 1 0 0 0 28 17 A 1 1 0 0 0 29 16 A 1 1 0 0 0 28 15 z M 34 15 A 1 1 0 0 0 33 16 A 1 1 0 0 0 34 17 A 1 1 0 0 0 35 16 A 1 1 0 0 0 34 15 z M 40 15 A 1 1 0 0 0 39 16 A 1 1 0 0 0 40 17 A 1 1 0 0 0 41 16 A 1 1 0 0 0 40 15 z M 46 15 A 1 1 0 0 0 45 16 A 1 1 0 0 0 46 17 A 1 1 0 0 0 47 16 A 1 1 0 0 0 46 15 z M 52 15 A 1 1 0 0 0 51 16 A 1 1 0 0 0 52 17 A 1 1 0 0 0 53 16 A 1 1 0 0 0 52 15 z M 58 15 A 1 1 0 0 0 57 16 A 1 1 0 0 0 58 17 A 1 1 0 0 0 59 16 A 1 1 0 0 0 58 15 z M 19 18 A 1 1 0 0 0 18 19 A 1 1 0 0 0 19 20 A 1 1 0 0 0 20 19 A 1 1 0 0 0 19 18 z M 25 18 A 1 1 0 0 0 24 19 A 1 1 0 0 0 25 20 A 1 1 0 0 0 26 19 A 1 1 0 0 0 25 18 z M 31 18 A 1 1 0 0 0 30 19 A 1 1 0 0 0 31 20 A 1 1 0 0 0 32 19 A 1 1 0 0 0 31 18 z M 37 18 A 1 1 0 0 0 36 19 A 1 1 0 0 0 37 20 A 1 1 0 0 0 38 19 A 1 1 0 0 0 37 18 z M 43 18 A 1 1 0 0 0 42 19 A 1 1 0 0 0 43 20 A 1 1 0 0 0 44 19 A 1 1 0 0 0 43 18 z M 49 18 A 1 1 0 0 0 48 19 A 1 1 0 0 0 49 20 A 1 1 0 0 0 50 19 A 1 1 0 0 0 49 18 z M 55 18 A 1 1 0 0 0 54 19 A 1 1 0 0 0 55 20 A 1 1 0 0 0 56 19 A 1 1 0 0 0 55 18 z M 61 18 A 1 1 0 0 0 60 19 A 1 1 0 0 0 61 20 A 1 1 0 0 0 62 19 A 1 1 0 0 0 61 18 z M 16 21 A 1 1 0 0 0 15 22 A 1 1 0 0 0 16 23 A 1 1 0 0 0 17 22 A 1 1 0 0 0 16 21 z M 22 21 A 1 1 0 0 0 21 22 A 1 1 0 0 0 22 23 A 1 1 0 0 0 23 22 A 1 1 0 0 0 22 21 z M 28 21 A 1 1 0 0 0 27 22 A 1 1 0 0 0 28 23 A 1 1 0 0 0 29 22 A 1 1 0 0 0 28 21 z M 34 21 A 1 1 0 0 0 33 22 A 1 1 0 0 0 34 23 A 1 1 0 0 0 35 22 A 1 1 0 0 0 34 21 z M 40 21 A 1 1 0 0 0 39 22 A 1 1 0 0 0 40 23 A 1 1 0 0 0 41 22 A 1 1 0 0 0 40 21 z M 46 21 A 1 1 0 0 0 45 22 A 1 1 0 0 0 46 23 A 1 1 0 0 0 47 22 A 1 1 0 0 0 46 21 z M 52 21 A 1 1 0 0 0 51 22 A 1 1 0 0 0 52 23 A 1 1 0 0 0 53 22 A 1 1 0 0 0 52 21 z M 58 21 A 1 1 0 0 0 57 22 A 1 1 0 0 0 58 23 A 1 1 0 0 0 59 22 A 1 1 0 0 0 58 21 z M 64 21 A 1 1 0 0 0 63 22 A 1 1 0 0 0 64 23 A 1 1 0 0 0 65 22 A 1 1 0 0 0 64 21 z M 19 24 A 1 1 0 0 0 18 25 A 1 1 0 0 0 19 26 A 1 1 0 0 0 20 25 A 1 1 0 0 0 19 24 z M 25 24 A 1 1 0 0 0 24 25 A 1 1 0 0 0 25 26 A 1 1 0 0 0 26 25 A 1 1 0 0 0 25 24 z M 31 24 A 1 1 0 0 0 30 25 A 1 1 0 0 0 31 26 A 1 1 0 0 0 32 25 A 1 1 0 0 0 31 24 z M 37 24 A 1 1 0 0 0 36 25 A 1 1 0 0 0 37 26 A 1 1 0 0 0 38 25 A 1 1 0 0 0 37 24 z M 43 24 A 1 1 0 0 0 42 25 A 1 1 0 0 0 43 26 A 1 1 0 0 0 44 25 A 1 1 0 0 0 43 24 z M 49 24 A 1 1 0 0 0 48 25 A 1 1 0 0 0 49 26 A 1 1 0 0 0 50 25 A 1 1 0 0 0 49 24 z M 55 24 A 1 1 0 0 0 54 25 A 1 1 0 0 0 55 26 A 1 1 0 0 0 56 25 A 1 1 0 0 0 55 24 z M 61 24 A 1 1 0 0 0 60 25 A 1 1 0 0 0 61 26 A 1 1 0 0 0 62 25 A 1 1 0 0 0 61 24 z M 16 27 A 1 1 0 0 0 15 28 A 1 1 0 0 0 16 29 A 1 1 0 0 0 17 28 A 1 1 0 0 0 16 27 z M 22 27 A 1 1 0 0 0 21 28 A 1 1 0 0 0 22 29 A 1 1 0 0 0 23 28 A 1 1 0 0 0 22 27 z M 28 27 A 1 1 0 0 0 27 28 A 1 1 0 0 0 28 29 A 1 1 0 0 0 29 28 A 1 1 0 0 0 28 27 z M 34 27 A 1 1 0 0 0 33 28 A 1 1 0 0 0 34 29 A 1 1 0 0 0 35 28 A 1 1 0 0 0 34 27 z M 46 27 A 1 1 0 0 0 45 28 A 1 1 0 0 0 46 29 A 1 1 0 0 0 47 28 A 1 1 0 0 0 46 27 z M 52 27 A 1 1 0 0 0 51 28 A 1 1 0 0 0 52 29 A 1 1 0 0 0 53 28 A 1 1 0 0 0 52 27 z M 58 27 A 1 1 0 0 0 57 28 A 1 1 0 0 0 58 29 A 1 1 0 0 0 59 28 A 1 1 0 0 0 58 27 z M 64 27 A 1 1 0 0 0 63 28 A 1 1 0 0 0 64 29 A 1 1 0 0 0 65 28 A 1 1 0 0 0 64 27 z M 13 30 A 1 1 0 0 0 12 31 A 1 1 0 0 0 13 32 A 1 1 0 0 0 14 31 A 1 1 0 0 0 13 30 z M 19 30 A 1 1 0 0 0 18 31 A 1 1 0 0 0 19 32 A 1 1 0 0 0 20 31 A 1 1 0 0 0 19 30 z M 25 30 A 1 1 0 0 0 24 31 A 1 1 0 0 0 25 32 A 1 1 0 0 0 26 31 A 1 1 0 0 0 25 30 z M 31 30 A 1 1 0 0 0 30 31 A 1 1 0 0 0 31 32 A 1 1 0 0 0 32 31 A 1 1 0 0 0 31 30 z M 49 30 A 1 1 0 0 0 48 31 A 1 1 0 0 0 49 32 A 1 1 0 0 0 50 31 A 1 1 0 0 0 49 30 z M 55 30 A 1 1 0 0 0 54 31 A 1 1 0 0 0 55 32 A 1 1 0 0 0 56 31 A 1 1 0 0 0 55 30 z M 61 30 A 1 1 0 0 0 60 31 A 1 1 0 0 0 61 32 A 1 1 0 0 0 62 31 A 1 1 0 0 0 61 30 z M 67 30 A 1 1 0 0 0 66 31 A 1 1 0 0 0 67 32 A 1 1 0 0 0 68 31 A 1 1 0 0 0 67 30 z M 40 31 C 44.982407 31 49 35.017593 49 40 C 49 44.982407 44.982407 49 40 49 C 35.017593 49 31 44.982407 31 40 C 31 35.017593 35.017593 31 40 31 z M 16 33 A 1 1 0 0 0 15 34 A 1 1 0 0 0 16 35 A 1 1 0 0 0 17 34 A 1 1 0 0 0 16 33 z M 22 33 A 1 1 0 0 0 21 34 A 1 1 0 0 0 22 35 A 1 1 0 0 0 23 34 A 1 1 0 0 0 22 33 z M 28 33 A 1 1 0 0 0 27 34 A 1 1 0 0 0 28 35 A 1 1 0 0 0 29 34 A 1 1 0 0 0 28 33 z M 52 33 A 1 1 0 0 0 51 34 A 1 1 0 0 0 52 35 A 1 1 0 0 0 53 34 A 1 1 0 0 0 52 33 z M 58 33 A 1 1 0 0 0 57 34 A 1 1 0 0 0 58 35 A 1 1 0 0 0 59 34 A 1 1 0 0 0 58 33 z M 64 33 A 1 1 0 0 0 63 34 A 1 1 0 0 0 64 35 A 1 1 0 0 0 65 34 A 1 1 0 0 0 64 33 z M 13 36 A 1 1 0 0 0 12 37 A 1 1 0 0 0 13 38 A 1 1 0 0 0 14 37 A 1 1 0 0 0 13 36 z M 19 36 A 1 1 0 0 0 18 37 A 1 1 0 0 0 19 38 A 1 1 0 0 0 20 37 A 1 1 0 0 0 19 36 z M 25 36 A 1 1 0 0 0 24 37 A 1 1 0 0 0 25 38 A 1 1 0 0 0 26 37 A 1 1 0 0 0 25 36 z M 55 36 A 1 1 0 0 0 54 37 A 1 1 0 0 0 55 38 A 1 1 0 0 0 56 37 A 1 1 0 0 0 55 36 z M 61 36 A 1 1 0 0 0 60 37 A 1 1 0 0 0 61 38 A 1 1 0 0 0 62 37 A 1 1 0 0 0 61 36 z M 67 36 A 1 1 0 0 0 66 37 A 1 1 0 0 0 67 38 A 1 1 0 0 0 68 37 A 1 1 0 0 0 67 36 z M 9.0253906 41 L 29.050781 41 C 29.558543 46.596286 34.274153 51 40 51 C 45.725847 51 50.441457 46.596286 50.949219 41 L 70.974609 41 C 70.446086 57.667774 56.797151 71 40 71 C 23.202849 71 9.5539141 57.667774 9.0253906 41 z M 13.519531 44.267578 A 1 1 0 0 0 12.519531 45.267578 A 1 1 0 0 0 13.519531 46.267578 A 1 1 0 0 0 14.519531 45.267578 A 1 1 0 0 0 13.519531 44.267578 z M 66.480469 44.267578 A 1 1 0 0 0 65.480469 45.267578 A 1 1 0 0 0 66.480469 46.267578 A 1 1 0 0 0 67.480469 45.267578 A 1 1 0 0 0 66.480469 44.267578 z M 15.054688 49.332031 A 1 1 0 0 0 14.054688 50.332031 A 1 1 0 0 0 15.054688 51.332031 A 1 1 0 0 0 16.054688 50.332031 A 1 1 0 0 0 15.054688 49.332031 z M 64.945312 49.332031 A 1 1 0 0 0 63.945312 50.332031 A 1 1 0 0 0 64.945312 51.332031 A 1 1 0 0 0 65.945312 50.332031 A 1 1 0 0 0 64.945312 49.332031 z M 17.550781 54 A 1 1 0 0 0 16.550781 55 A 1 1 0 0 0 17.550781 56 A 1 1 0 0 0 18.550781 55 A 1 1 0 0 0 17.550781 54 z M 62.449219 54 A 1 1 0 0 0 61.449219 55 A 1 1 0 0 0 62.449219 56 A 1 1 0 0 0 63.449219 55 A 1 1 0 0 0 62.449219 54 z M 20.908203 58.091797 A 1 1 0 0 0 19.908203 59.091797 A 1 1 0 0 0 20.908203 60.091797 A 1 1 0 0 0 21.908203 59.091797 A 1 1 0 0 0 20.908203 58.091797 z M 59.091797 58.091797 A 1 1 0 0 0 58.091797 59.091797 A 1 1 0 0 0 59.091797 60.091797 A 1 1 0 0 0 60.091797 59.091797 A 1 1 0 0 0 59.091797 58.091797 z M 25 61.449219 A 1 1 0 0 0 24 62.449219 A 1 1 0 0 0 25 63.449219 A 1 1 0 0 0 26 62.449219 A 1 1 0 0 0 25 61.449219 z M 55 61.449219 A 1 1 0 0 0 54 62.449219 A 1 1 0 0 0 55 63.449219 A 1 1 0 0 0 56 62.449219 A 1 1 0 0 0 55 61.449219 z M 29.667969 63.945312 A 1 1 0 0 0 28.667969 64.945312 A 1 1 0 0 0 29.667969 65.945312 A 1 1 0 0 0 30.667969 64.945312 A 1 1 0 0 0 29.667969 63.945312 z M 50.332031 63.945312 A 1 1 0 0 0 49.332031 64.945312 A 1 1 0 0 0 50.332031 65.945312 A 1 1 0 0 0 51.332031 64.945312 A 1 1 0 0 0 50.332031 63.945312 z M 34.732422 65.480469 A 1 1 0 0 0 33.732422 66.480469 A 1 1 0 0 0 34.732422 67.480469 A 1 1 0 0 0 35.732422 66.480469 A 1 1 0 0 0 34.732422 65.480469 z M 45.267578 65.480469 A 1 1 0 0 0 44.267578 66.480469 A 1 1 0 0 0 45.267578 67.480469 A 1 1 0 0 0 46.267578 66.480469 A 1 1 0 0 0 45.267578 65.480469 z M 40 66 A 1 1 0 0 0 39 67 A 1 1 0 0 0 40 68 A 1 1 0 0 0 41 67 A 1 1 0 0 0 40 66 z"/></svg>