<svg xmlns="http://www.w3.org/2000/svg" viewBox="0 0 64 64" width="64px" height="64px"><linearGradient id="fV6P4_4UdjHEMO1EPsOpEa" x1="32" x2="32" y1="9.667" y2="55.459" gradientUnits="userSpaceOnUse" spreadMethod="reflect"><stop offset="0" stop-color="#1a6dff"/><stop offset="1" stop-color="#c822ff"/></linearGradient><path fill="url(#fV6P4_4UdjHEMO1EPsOpEa)" d="M39.55,54H30c-1.654,0-3-1.345-3-3v-6c0-1.654,1.345-3,3-3h9.756 c3.149,0,5.812-2.238,6.192-5.205c0.226-1.751-0.287-3.439-1.442-4.753C43.363,30.744,41.721,30,40,30H24v5.994 c0,0.776-0.432,1.468-1.128,1.806c-0.688,0.334-1.491,0.248-2.095-0.227L7.533,27.165C6.558,26.399,6,25.246,6,24 s0.559-2.398,1.533-3.164l13.244-10.408c0.602-0.475,1.403-0.563,2.095-0.227C23.568,10.54,24,11.231,24,12.007V18h16 c9.76,0,17.834,7.938,17.998,17.695c0.079,4.728-1.755,9.239-5.163,12.705C49.335,51.959,44.493,54,39.55,54z M30,44 c-0.552,0-1,0.449-1,1v6c0,0.552,0.448,1,1,1h9.55c4.41,0,8.733-1.823,11.859-5.003c3.029-3.08,4.659-7.082,4.589-11.27 C55.852,27.056,48.676,20,40,20H22v-7.993L8.769,22.409C8.28,22.792,8,23.373,8,24s0.28,1.208,0.769,1.592L22.013,36L22,28h18 c2.296,0,4.485,0.992,6.007,2.722c1.519,1.726,2.221,4.032,1.926,6.328C47.424,41.012,43.908,44,39.756,44H30z"/><linearGradient id="fV6P4_4UdjHEMO1EPsOpEb" x1="32.702" x2="32.702" y1="19.167" y2="50.383" gradientUnits="userSpaceOnUse" spreadMethod="reflect"><stop offset="0" stop-color="#6dc7ff"/><stop offset="1" stop-color="#e6abff"/></linearGradient><path fill="url(#fV6P4_4UdjHEMO1EPsOpEb)" d="M40,23H19v-2.006c0-0.602-0.276-1.105-0.738-1.349c-0.436-0.229-0.963-0.182-1.43,0.139 l-3.53,2.582c-0.562,0.387-0.896,1.017-0.896,1.685c0,0.642,0.304,1.22,0.821,1.576l3.66,2.607c0.256,0.176,0.539,0.266,0.814,0.266 c0.199,0,0.394-0.046,0.573-0.141C18.735,28.117,19,27.623,19,27.007V25h21c6.065,0,11,4.935,11,11s-4.935,11-11,11h-9v2h9 c7.168,0,13-5.832,13-13S47.168,23,40,23z"/><linearGradient id="fV6P4_4UdjHEMO1EPsOpEc" x1="21" x2="21" y1="9.667" y2="55.459" gradientUnits="userSpaceOnUse" spreadMethod="reflect"><stop offset="0" stop-color="#1a6dff"/><stop offset="1" stop-color="#c822ff"/></linearGradient><path fill="url(#fV6P4_4UdjHEMO1EPsOpEc)" d="M25,51c0,1.657-1.343,3-3,3h-2c-1.657,0-3-1.343-3-3v-6c0-1.657,1.343-3,3-3h2 c1.657,0,3,1.343,3,3V51z M23,45c0-0.552-0.448-1-1-1h-2c-0.552,0-1,0.448-1,1v6c0,0.552,0.448,1,1,1h2c0.552,0,1-0.448,1-1V45z"/><linearGradient id="fV6P4_4UdjHEMO1EPsOpEd" x1="11" x2="11" y1="9.667" y2="55.459" gradientUnits="userSpaceOnUse" spreadMethod="reflect"><stop offset="0" stop-color="#1a6dff"/><stop offset="1" stop-color="#c822ff"/></linearGradient><path fill="url(#fV6P4_4UdjHEMO1EPsOpEd)" d="M15,51c0,1.657-1.343,3-3,3h-2c-1.657,0-3-1.343-3-3v-6c0-1.657,1.343-3,3-3h2 c1.657,0,3,1.343,3,3V51z M13,45c0-0.552-0.448-1-1-1h-2c-0.552,0-1,0.448-1,1v6c0,0.552,0.448,1,1,1h2c0.552,0,1-0.448,1-1V45z"/></svg>