<svg xmlns="http://www.w3.org/2000/svg" viewBox="0 0 64 64" width="64px" height="64px"><linearGradient id="k47QIOVAr_ml2LXsJeo0Da" x1="32" x2="32" y1="4.667" y2="59.173" gradientUnits="userSpaceOnUse" spreadMethod="reflect"><stop offset="0" stop-color="#1a6dff"/><stop offset="1" stop-color="#c822ff"/></linearGradient><path fill="url(#k47QIOVAr_ml2LXsJeo0Da)" d="M32,58C17.664,58,6,46.337,6,32S17.664,6,32,6s26,11.663,26,26S46.336,58,32,58z M32,8 C18.767,8,8,18.767,8,32s10.767,24,24,24s24-10.767,24-24S45.233,8,32,8z"/><linearGradient id="k47QIOVAr_ml2LXsJeo0Db" x1="30.835" x2="30.835" y1="16.25" y2="48.774" gradientUnits="userSpaceOnUse" spreadMethod="reflect"><stop offset="0" stop-color="#6dc7ff"/><stop offset="1" stop-color="#e6abff"/></linearGradient><path fill="url(#k47QIOVAr_ml2LXsJeo0Db)" d="M24.291,47.02l-1.414-1.414l13.916-13.916L23.502,18.395l1.414-1.414l13.291,13.291 c0.781,0.78,0.781,2.052,0,2.832L24.291,47.02z"/><linearGradient id="k47QIOVAr_ml2LXsJeo0Dc" x1="32.001" x2="32.001" y1="4.667" y2="59.173" gradientUnits="userSpaceOnUse" spreadMethod="reflect"><stop offset="0" stop-color="#1a6dff"/><stop offset="1" stop-color="#c822ff"/></linearGradient><path fill="url(#k47QIOVAr_ml2LXsJeo0Dc)" d="M29.955,47h-8.496c-0.811,0-1.536-0.484-1.846-1.233c-0.311-0.749-0.141-1.604,0.433-2.178 l10.882-10.883c0.389-0.39,0.389-1.022,0-1.412L20.046,20.411c-0.574-0.573-0.744-1.429-0.433-2.178 C19.923,17.484,20.648,17,21.459,17h8.496c0.533,0,1.035,0.207,1.412,0.584L43.663,29.88c0.566,0.566,0.878,1.319,0.878,2.12 s-0.312,1.554-0.878,2.12L31.368,46.415C30.99,46.793,30.488,47,29.955,47z M29.954,19h-8.495l10.883,10.88 c1.169,1.169,1.169,3.071,0,4.24L21.46,45.003L29.955,45l12.293-12.294c0.189-0.188,0.292-0.439,0.292-0.706 s-0.104-0.517-0.292-0.706L29.954,19z"/></svg>