<svg xmlns="http://www.w3.org/2000/svg" viewBox="0 0 64 64" width="64px" height="64px"><linearGradient id="trEBVc~FoqbMqi1nwq0Vfa" x1="32" x2="32" y1="8" y2="31" gradientUnits="userSpaceOnUse" spreadMethod="reflect"><stop offset="0" stop-color="#6dc7ff"/><stop offset="1" stop-color="#e6abff"/></linearGradient><path fill="url(#trEBVc~FoqbMqi1nwq0Vfa)" d="M55.98,31H39.94c-0.49-3.95-3.86-7-7.94-7c-4.08,0-7.45,3.05-7.94,7H8.02 c0.21-5,1.95-9.6,4.75-13.36c0.46-0.61,0.94-1.2,1.47-1.77v-0.01c0.51-0.56,1.06-1.11,1.62-1.62c0.01,0.01,0.01,0.01,0.01,0 c0.57-0.53,1.16-1.01,1.77-1.47C21.65,9.78,26.62,8,32,8s10.35,1.78,14.36,4.77c0.61,0.46,1.2,0.94,1.77,1.47c0,0.01,0,0.01,0.01,0 c0.56,0.51,1.11,1.06,1.62,1.62v0.01c0.53,0.57,1.01,1.16,1.47,1.77C54.03,21.4,55.77,26,55.98,31z"/><linearGradient id="trEBVc~FoqbMqi1nwq0Vfb" x1="32" x2="32" y1="6.5" y2="57.828" gradientUnits="userSpaceOnUse" spreadMethod="reflect"><stop offset="0" stop-color="#1a6dff"/><stop offset="1" stop-color="#c822ff"/></linearGradient><path fill="url(#trEBVc~FoqbMqi1nwq0Vfb)" d="M32 29A3 3 0 1 0 32 35A3 3 0 1 0 32 29Z"/><linearGradient id="trEBVc~FoqbMqi1nwq0Vfc" x1="12.77" x2="51.23" y1="15.205" y2="15.205" gradientUnits="userSpaceOnUse" spreadMethod="reflect"><stop offset="0" stop-color="#1a6dff"/><stop offset="1" stop-color="#c822ff"/></linearGradient><path fill="url(#trEBVc~FoqbMqi1nwq0Vfc)" d="M12.77,17.64c0.47-0.61,0.96-1.2,1.47-1.77C13.71,16.44,13.23,17.03,12.77,17.64z M14.24,15.86c0.52-0.56,1.06-1.1,1.62-1.62C15.3,14.75,14.75,15.3,14.24,15.86z M15.87,14.24c0.57-0.51,1.16-1,1.77-1.47 C17.03,13.23,16.44,13.71,15.87,14.24z M46.36,12.77c0.61,0.47,1.2,0.96,1.77,1.47C47.56,13.71,46.97,13.23,46.36,12.77z M48.14,14.24c0.56,0.52,1.1,1.06,1.62,1.62C49.25,15.3,48.7,14.75,48.14,14.24z M49.76,15.87c0.51,0.57,1,1.16,1.47,1.77 C50.77,17.03,50.29,16.44,49.76,15.87z"/><linearGradient id="trEBVc~FoqbMqi1nwq0Vfd" x1="32" x2="32" y1="6" y2="58" gradientUnits="userSpaceOnUse" spreadMethod="reflect"><stop offset="0" stop-color="#1a6dff"/><stop offset="1" stop-color="#c822ff"/></linearGradient><path fill="url(#trEBVc~FoqbMqi1nwq0Vfd)" d="M32,6C17.64,6,6,17.64,6,32s11.64,26,26,26s26-11.64,26-26S46.36,6,32,6z M12.77,17.64 c0.46-0.61,0.94-1.2,1.47-1.77v-0.01c0.51-0.56,1.06-1.11,1.62-1.62c0.01,0.01,0.01,0.01,0.01,0c0.57-0.53,1.16-1.01,1.77-1.47 C21.65,9.78,26.62,8,32,8s10.35,1.78,14.36,4.77c0.61,0.46,1.2,0.94,1.77,1.47c0,0.01,0,0.01,0.01,0c0.56,0.51,1.11,1.06,1.62,1.62 v0.01c0.53,0.57,1.01,1.16,1.47,1.77C54.03,21.4,55.77,26,55.98,31H39.94c-0.49-3.95-3.86-7-7.94-7c-4.08,0-7.45,3.05-7.94,7H8.02 C8.23,26,9.97,21.4,12.77,17.64z M38,32c0,3.31-2.69,6-6,6s-6-2.69-6-6s2.69-6,6-6S38,28.69,38,32z M32,56 C19.11,56,8.55,45.77,8.02,33h16.04c0.49,3.95,3.86,7,7.94,7c4.08,0,7.45-3.05,7.94-7h16.04C55.45,45.77,44.89,56,32,56z"/></svg>