<svg xmlns="http://www.w3.org/2000/svg" viewBox="0 0 64 64" width="64px" height="64px"><linearGradient id="2Dj8pivrk90SzG79t3W8Xa" x1="32.02" x2="32.02" y1="8.987" y2="55.782" gradientUnits="userSpaceOnUse" spreadMethod="reflect"><stop offset="0" stop-color="#1a6dff"/><stop offset="1" stop-color="#c822ff"/></linearGradient><path fill="url(#2Dj8pivrk90SzG79t3W8Xa)" d="M54.064,49.821l-4.243,4.243c-1.168,1.168-3.074,1.168-4.243,0L32,40.485L18.434,54.051 c-1.168,1.168-3.074,1.168-4.243,0l-4.243-4.243c-1.168-1.168-1.168-3.074,0-4.243L23.515,32L9.962,18.447 c-1.168-1.168-1.168-3.074,0-4.243l4.243-4.243c1.168-1.168,3.074-1.168,4.243,0L32,23.515L45.605,9.91 c1.168-1.168,3.074-1.168,4.243,0l4.243,4.243c1.168,1.168,1.168,3.074,0,4.243L40.485,32l13.579,13.579 C55.232,46.747,55.232,48.653,54.064,49.821z M11.363,46.98c-0.389,0.389-0.389,1.025,0,1.414l4.243,4.243 c0.389,0.389,1.025,0.389,1.414,0L32,37.657L46.993,52.65c0.389,0.389,1.025,0.389,1.414,0l4.243-4.243 c0.389-0.389,0.389-1.025,0-1.414L37.657,32l15.019-15.019c0.389-0.389,0.389-1.025,0-1.414l-4.243-4.243 c-0.389-0.389-1.025-0.389-1.414,0L32,26.343L17.033,11.376c-0.389-0.389-1.025-0.389-1.414,0l-4.243,4.243 c-0.389,0.389-0.389,1.025,0,1.414L26.343,32L11.363,46.98z"/><linearGradient id="2Dj8pivrk90SzG79t3W8Xb" x1="32.02" x2="32.02" y1="7.69" y2="55.119" gradientUnits="userSpaceOnUse" spreadMethod="reflect"><stop offset="0" stop-color="#6dc7ff"/><stop offset="1" stop-color="#e6abff"/></linearGradient><path fill="url(#2Dj8pivrk90SzG79t3W8Xb)" d="M47.019,14.153L32,29.172L17.033,14.205c-0.389-0.389-1.025-0.389-1.414,0l-1.414,1.414 c-0.389,0.389-0.389,1.025,0,1.414L29.172,32l-14.98,14.98c-0.389,0.389-0.389,1.025,0,1.414l1.414,1.414 c0.389,0.389,1.025,0.389,1.414,0L32,34.828l14.993,14.993c0.389,0.389,1.025,0.389,1.414,0l1.414-1.414 c0.389-0.389,0.389-1.025,0-1.414L34.828,32l15.019-15.019c0.389-0.389,0.389-1.025,0-1.414l-1.414-1.414 C48.044,13.763,47.408,13.763,47.019,14.153z"/></svg>