<svg xmlns="http://www.w3.org/2000/svg" viewBox="0 0 100 100" width="100px" height="100px"><path fill="#7c8a9e" d="M50,15c-19.33,0-35,15.67-35,35h70C85,30.67,69.33,15,50,15z"/><path fill="#a2b4cc" d="M50,85c19.33,0,35-15.67,35-35H15C15,69.33,30.67,85,50,85z"/><path fill="#e3e2e3" d="M59.981,64.378C59.781,69.724,55.395,74,50,74s-9.781-4.276-9.981-9.622	C25.553,62.536,15,56.797,15,50c0,19.33,15.67,35,35,35s35-15.67,35-35C85,56.797,74.447,62.536,59.981,64.378z"/><path fill="#1f212b" d="M50,81c-10.085,0-19.574-4.939-25.383-13.213c-0.159-0.226-0.104-0.538,0.122-0.696	c0.224-0.158,0.536-0.104,0.696,0.122C31.058,75.22,40.24,80,50,80c6.198,0,12.15-1.88,17.213-5.438	c0.224-0.159,0.536-0.104,0.696,0.122c0.158,0.226,0.104,0.537-0.122,0.696C62.556,79.057,56.405,81,50,81z"/><path fill="#1f212b" d="M74.227,69c-0.106,0-0.214-0.033-0.304-0.104c-0.22-0.168-0.261-0.481-0.093-0.7l0.075-0.099	c0.224-0.292,0.447-0.584,0.659-0.885c0.159-0.227,0.473-0.28,0.696-0.122c0.227,0.158,0.281,0.471,0.122,0.696	c-0.22,0.313-0.452,0.616-0.685,0.919l-0.075,0.098C74.525,68.933,74.376,69,74.227,69z"/><path fill="#1f212b" d="M70.565,73c-0.136,0-0.271-0.055-0.369-0.162c-0.187-0.204-0.172-0.521,0.031-0.707	c0.7-0.64,1.362-1.302,1.967-1.967c0.188-0.205,0.503-0.219,0.706-0.034c0.205,0.186,0.22,0.502,0.034,0.706	c-0.626,0.688-1.309,1.372-2.031,2.033C70.807,72.957,70.687,73,70.565,73z"/><path fill="#f15b6c" d="M40.019,35.622h19.962C74.447,37.464,85,43.202,85,50c0-19.33-15.67-35-35-35S15,30.67,15,50	C15,43.202,25.553,37.464,40.019,35.622z"/><path fill="#75849d" d="M50,64.5c-3.475,0-6.829-0.219-9.994-0.623C40.006,63.919,40,63.959,40,64c0,5.523,4.477,10,10,10	s10-4.477,10-10c0-0.041-0.006-0.081-0.006-0.123C56.829,64.281,53.475,64.5,50,64.5z"/><path fill="#1f212b" d="M50,65c-19.299,0-35-6.729-35-15h1c0,7.72,15.252,14,34,14s34-6.28,34-14h1	C85,58.271,69.299,65,50,65z"/><path fill="#1f212b" d="M50,75c-5.65,0-10.292-4.213-10.916-9.737C24.044,63.181,14,57.094,14,50	c0-7.222,10.405-13.398,25.894-15.37l0.252,1.984C25.929,38.424,16,43.929,16,50c0,6.07,9.929,11.575,24.146,13.386	c0.485,0.063,0.855,0.466,0.873,0.955C41.2,69.196,45.145,73,50,73s8.8-3.804,8.981-8.659c0.018-0.489,0.388-0.893,0.873-0.955	C74.071,61.575,84,56.07,84,50c0-6.071-9.929-11.576-24.146-13.386l0.252-1.984C75.595,36.602,86,42.778,86,50	c0,7.094-10.044,13.181-25.084,15.263C60.292,70.787,55.65,75,50,75z"/><circle cx="50" cy="36" r="10" fill="#fff"/><path fill="#1f212b" d="M50,47c-6.065,0-11-4.935-11-11s4.935-11,11-11s11,4.935,11,11S56.065,47,50,47z M50,27	c-4.963,0-9,4.037-9,9s4.037,9,9,9s9-4.037,9-9S54.963,27,50,27z"/><circle cx="50" cy="36" r="4.5" fill="#444445"/><path fill="#1f212b" d="M50,41c-2.757,0-5-2.243-5-5s2.243-5,5-5s5,2.243,5,5S52.757,41,50,41z M50,32c-2.206,0-4,1.794-4,4	s1.794,4,4,4s4-1.794,4-4S52.206,32,50,32z"/><path fill="#1f212b" d="M50,86c-19.851,0-36-16.149-36-36s16.149-36,36-36s36,16.149,36,36S69.851,86,50,86z M50,16	c-18.748,0-34,15.252-34,34s15.252,34,34,34s34-15.252,34-34S68.748,16,50,16z"/><rect width="69" height="1" x="16" y="50" fill="#1f212b"/></svg>