<svg xmlns="http://www.w3.org/2000/svg" viewBox="0 0 100 100" width="100px" height="100px"><circle cx="50" cy="50" r="35" fill="#e3e2e3"/><path fill="#f15b6c" d="M50,15c-19.33,0-35,15.67-35,35h70C85,30.67,69.33,15,50,15z"/><path fill="#1f212b" d="M50,86c-19.851,0-36-16.149-36-36s16.149-36,36-36s36,16.149,36,36S69.851,86,50,86z M50,16	c-18.748,0-34,15.252-34,34s15.252,34,34,34s34-15.252,34-34S68.748,16,50,16z"/><circle cx="50" cy="50" r="10" fill="#fff"/><path fill="#1f212b" d="M50,61c-6.065,0-11-4.935-11-11s4.935-11,11-11s11,4.935,11,11S56.065,61,50,61z M50,41	c-4.962,0-9,4.037-9,9s4.038,9,9,9s9-4.037,9-9S54.962,41,50,41z"/><circle cx="50" cy="50" r="4.5" fill="#444445"/><path fill="#1f212b" d="M50,55c-2.757,0-5-2.243-5-5s2.243-5,5-5s5,2.243,5,5S52.757,55,50,55z M50,46c-2.206,0-4,1.794-4,4	s1.794,4,4,4s4-1.794,4-4S52.206,46,50,46z"/><rect width="25" height="2" x="15" y="49" fill="#1f212b"/><rect width="25" height="2" x="60" y="49" fill="#1f212b"/><path fill="#1f212b" d="M50,81c-10.085,0-19.574-4.939-25.382-13.213c-0.159-0.226-0.104-0.538,0.122-0.696	c0.226-0.159,0.538-0.104,0.696,0.122C31.058,75.22,40.24,80,50,80c6.198,0,12.15-1.88,17.212-5.438	c0.226-0.159,0.538-0.104,0.697,0.122c0.159,0.226,0.104,0.537-0.122,0.696C62.556,79.057,56.405,81,50,81z"/><path fill="#1f212b" d="M74.226,69c-0.106,0-0.212-0.033-0.303-0.103c-0.219-0.168-0.261-0.481-0.093-0.701l0.087-0.114	c0.22-0.286,0.439-0.573,0.647-0.869c0.159-0.226,0.47-0.281,0.696-0.122c0.226,0.158,0.281,0.471,0.122,0.696	c-0.216,0.308-0.444,0.605-0.672,0.903l-0.087,0.113C74.525,68.933,74.376,69,74.226,69z"/><path fill="#1f212b" d="M70.565,73c-0.135,0-0.27-0.055-0.369-0.162c-0.187-0.204-0.173-0.521,0.031-0.707	c0.705-0.646,1.367-1.307,1.966-1.967c0.187-0.203,0.502-0.219,0.707-0.034c0.204,0.186,0.219,0.502,0.034,0.706	c-0.62,0.683-1.304,1.367-2.032,2.033C70.807,72.957,70.686,73,70.565,73z"/></svg>