<svg xmlns="http://www.w3.org/2000/svg" viewBox="0 0 128 128" width="64px" height="64px"><path fill="#fff" d="M64 9A55 55 0 1 0 64 119A55 55 0 1 0 64 9Z" transform="rotate(-45.001 64 64.001)"/><path fill="#00d6c6" d="M64 24A40 40 0 1 0 64 104A40 40 0 1 0 64 24Z" transform="rotate(-45.001 64 64.001)"/><path fill="#444b54" d="M64,122c-14.9,0-29.7-5.7-41-17C12,94.1,6,79.5,6,64s6-30.1,17-41v0c0,0,0,0,0,0c22.6-22.6,59.4-22.6,82,0 c11,11,17,25.5,17,41s-6,30.1-17,41C93.7,116.3,78.9,122,64,122z M64,12c-13.3,0-26.6,5.1-36.8,15.2v0C17.4,37.1,12,50.1,12,64 s5.4,26.9,15.2,36.8c20.3,20.3,53.3,20.3,73.5,0C110.6,90.9,116,77.9,116,64s-5.4-26.9-15.2-36.8C90.6,17.1,77.3,12,64,12z M25.1,25.1L25.1,25.1L25.1,25.1z"/><path fill="#fff" d="M82,61H51.2l9.9-9.9c1.2-1.2,1.2-3.1,0-4.2c-1.2-1.2-3.1-1.2-4.2,0l-15,15c-1.2,1.2-1.2,3.1,0,4.2l15,15 c0.6,0.6,1.4,0.9,2.1,0.9s1.5-0.3,2.1-0.9c1.2-1.2,1.2-3.1,0-4.2L51.2,67H82c1.7,0,3-1.3,3-3S83.7,61,82,61z"/></svg>