<svg xmlns="http://www.w3.org/2000/svg" viewBox="0 0 128 128" width="64px" height="64px"><path fill="#F7E6AC" d="M9 64H39V114H9z"/><path fill="#E5CC7C" d="M29 64H39V114H29z"/><path fill="#FFF" d="M9 64H16V114H9z"/><path fill="#EAD69D" d="M89 84H119V114H89z"/><path fill="#CEB672" d="M89 84H99V114H89z"/><path fill="#F7E6AC" d="M39 34H89V114H39z"/><path fill="#454B54" d="M63.4,89.9C62,89.7,61,88.3,61,86.9V81h-1.9c-1.5,0-2.8-1-3.1-2.4C55.7,76.7,57.1,75,59,75h0.1c1,0,1.9-0.8,1.9-1.9l0,0c0-1.5,1-2.8,2.4-3.1c1.9-0.4,3.6,1.1,3.6,2.9v14C67,88.9,65.3,90.3,63.4,89.9z"/><path fill="#FFF" d="M39 34H49V114H39z"/><path fill="#EAD69D" d="M79 34H89V114H79z"/><path fill="none" stroke="#454B54" stroke-linecap="round" stroke-linejoin="round" stroke-miterlimit="10" stroke-width="6" d="M89 114L89 34 39 34 39 94M119 84L99 84M29 64L9 64 9 114M119 114L119 84M4 114L124 114"/></svg>